{"title":"Werner Herzog - Stroszek (1977)","uid":8037582,"size":1563644365,"categoryP":"video","categoryS":"movies","magnet":"?xt=urn:btih:e7e13ee59842d271c934149c5d133f82138e22ed&amp;dn=Werner+Herzog+-+Stroszek+%281977%29&amp;tr=udp%3A%2F%2Ftracker.openbittorrent.com%3A80&amp;tr=udp%3A%2F%2Fopen.demonii.com%3A1337&amp;tr=udp%3A%2F%2Ftracker.coppersurfer.tk%3A6969&amp;tr=udp%3A%2F%2Fexodus.desync.com%3A6969","seeders":20,"leechers":2,"uploader":"moonflux","files":2,"time":1358547165,"description":"General\nUnique ID : 234958629504714426583571149875501534825 (0xB0C362D291B98F92B98B0B76D7C30E69)\nComplete name : /home/gj5/home/data/stroszek.1977.dvdrip.x264.ac3.2ch-[gx]/stroszek.1977.dvdrip.x264.ac3.2ch-[gx].mkv\nFormat : Matroska\nFormat version : Version 2\nFile size : 1.46 GiB\nDuration : 1h 47mn\nOverall bit rate : 1 931 Kbps\nEncoded date : UTC 2009-12-22 22:05:32\nWriting application : mkvmerge v3.0.0 ('Hang up your Hang-Ups') built on Dec 12 2009 15:20:35\nWriting library : libebml v0.7.9 + libmatroska v0.8.1\n\nVideo\nID : 1\nFormat : AVC\nFormat/Info : Advanced Video Codec\nFormat profile : &lt;a class=&quot;__cf_email__&quot; href=&quot;/cdn-cgi/l/email-protection&quot; data-cfemail=&quot;bdf5d4dad5fdf189938c&quot;&gt;[email&amp;#160;protected]&lt;/a&gt;&lt;script cf-hash='f9e31' type=&quot;text/javascript&quot;&gt;\n/* &lt;![CDATA[ */!function(){try{var t=&quot;currentScript&quot;in document?document.currentScript:function(){for(var t=document.getElementsByTagName(&quot;script&quot;),e=t.length;e--;)if(t[e].getAttribute(&quot;cf-hash&quot;))return t[e]}();if(t&amp;&amp;t.previousSibling){var e,r,n,i,c=t.previousSibling,a=c.getAttribute(&quot;data-cfemail&quot;);if(a){for(e=&quot;&quot;,r=parseInt(a.substr(0,2),16),n=2;a.length-n;n+=2)i=parseInt(a.substr(n,2),16)^r,e+=String.fromCharCode(i);e=document.createTextNode(e),c.parentNode.replaceChild(e,c)}}}catch(u){}}();/* ]]&gt; */&lt;/script&gt;\nFormat settings, CABAC : Yes\nFormat settings, ReFrames : 16 frames\nCodec ID : V_MPEG4/ISO/AVC\nDuration : 1h 47mn\nBit rate : 1 737 Kbps\nWidth : 676 pixels\nHeight : 480 pixels\nDisplay aspect ratio : 1.669\nFrame rate : 23.976 fps\nColor space : YUV\nChroma subsampling : 4:2:0\nBit depth : 8 bits\nScan type : Progressive\nBits/(Pixel*Frame) : 0.223\nStream size : 1.28 GiB (88%)\nTitle : Stroszek (1977)\nWriting library : x264 core 80 r1376M 3feaec2\nEncoding settings : cabac=1 / ref=16 / deblock=1:-2:-2 / analyse=0x3:0x133 / me=umh / subme=10 / psy=1 / psy_rd=1.2:0.3 / mixed_ref=1 / me_range=24 / chroma_me=1 / trellis=2 / 8x8dct=1 / cqm=0 / deadzone=21,11 / fast_pskip=0 / chroma_qp_offset=-4 / threads=3 / sliced_threads=0 / nr=0 / decimate=0 / mbaff=0 / constrained_intra=0 / bframes=9 / b_pyramid=2 / b_adapt=2 / b_bias=0 / direct=3 / wpredb=1 / wpredp=1 / keyint=240 / keyint_min=24 / scenecut=40 / rc_lookahead=60 / rc=2pass / mbtree=1 / bitrate=1737 / ratetol=1.0 / qcomp=0.60 / qpmin=10 / qpmax=51 / qpstep=4 / cplxblur=20.0 / qblur=0.5 / ip_ratio=1.40 / aq=1:0.80\n\nAudio\nID : 2\nFormat : AC-3\nFormat/Info : Audio Coding 3\nMode extension : CM (complete main)\nCodec ID : A_AC3\nDuration : 1h 47mn\nBit rate mode : Constant\nBit rate : 192 Kbps\nChannel(s) : 2 channels\nChannel positions : Front: L R\nSampling rate : 48.0 KHz\nBit depth : 16 bits\nCompression mode : Lossy\nStream size : 148 MiB (10%)\nTitle : German Audio (AC3, 2 channels)\nLanguage : German\n\nText\nID : 3\nFormat : UTF-8\nCodec ID : S_TEXT/UTF8\nCodec ID/Info : UTF-8 Plain Text\nTitle : English Subs (SRT)\nLanguage : English\n","torrent":{"xt":"urn:btih:e7e13ee59842d271c934149c5d133f82138e22ed","amp;dn":"Werner+Herzog+-+Stroszek+%281977%29","amp;tr":["udp%3A%2F%2Ftracker.openbittorrent.com%3A80","udp%3A%2F%2Fopen.demonii.com%3A1337","udp%3A%2F%2Ftracker.coppersurfer.tk%3A6969","udp%3A%2F%2Fexodus.desync.com%3A6969"],"infoHash":"e7e13ee59842d271c934149c5d133f82138e22ed","infoHashBuffer":{"type":"Buffer","data":[231,225,62,229,152,66,210,113,201,52,20,156,93,19,63,130,19,142,34,237]},"announce":[],"urlList":[]}}